<?xml version="1.0" encoding="UTF-8"?>
<svg version="1.1" xmlns="http://www.w3.org/2000/svg" width="512" height="512" fill="#72929e">
<path d="M0 0 C3.44837392 2.13668608 6.30843327 4.6382671 9.26953125 7.40625 C12.21116921 6.0180613 14.79848851 4.4004622 17.45703125 2.53125 C27.44396606 -4.15934358 39.09707416 -8.23038289 51.26953125 -6.59375 C55.20835069 -5.26825818 57.84349843 -3.04163065 60.70703125 -0.03125 C62.92085937 4.83917186 63.05313261 9.14044888 62.26953125 14.40625 C60.24014284 18.46502682 58.08745609 21.01107322 54.26953125 23.40625 C51.0625 24.21484375 51.0625 24.21484375 47.45703125 24.84375 C40.52783355 26.23246771 35.91641149 27.61629515 30.95703125 32.84375 C27.9074866 37.47454003 27.01261995 41.27429749 26.85546875 46.80078125 C26.81679688 48.00283203 26.778125 49.20488281 26.73828125 50.44335938 C26.70734375 51.68923828 26.67640625 52.93511719 26.64453125 54.21875 C26.60585938 55.48396484 26.5671875 56.74917969 26.52734375 58.05273438 C26.43322468 61.17042851 26.34758764 64.28811914 26.26953125 67.40625 C26.95476364 67.39736755 27.63999603 67.38848511 28.34599304 67.3793335 C34.86111432 67.29858076 41.37609229 67.23798161 47.89160442 67.19900131 C51.23996893 67.17828553 54.5876003 67.14804722 57.93579102 67.10449219 C61.80105286 67.05550098 65.6657323 67.03317261 69.53125 67.015625 C70.71095871 66.99497986 71.89066742 66.97433472 73.10612488 66.95306396 C88.45473122 66.94899698 100.95381838 72.20361063 112.08203125 82.71875 C125.55687495 96.98764699 126.86888495 112.67858261 126.78710938 131.3203125 C126.79253866 133.40948981 126.79966583 135.49866328 126.80834961 137.58782959 C126.8264898 143.22834524 126.81955395 148.86856622 126.80683327 154.50908661 C126.79665722 160.43135837 126.80611168 166.35360608 126.81237793 172.27587891 C126.81964096 182.21847022 126.81010193 192.16094242 126.79101562 202.10351562 C126.76924958 213.57400116 126.77630189 225.04420222 126.79832125 236.51468086 C126.81651357 246.38939906 126.81901484 256.26403197 126.80856657 266.13876152 C126.80235271 272.02494846 126.80143782 277.91100198 126.81471252 283.79718018 C126.82632625 289.33283964 126.81814473 294.86813479 126.7951355 300.40375519 C126.78987782 302.42689664 126.79131131 304.45006912 126.80018616 306.47319794 C126.8736329 324.92744971 124.14007847 339.26707989 110.95703125 353.21875 C99.15861546 364.3605929 85.50617496 368.07643943 69.53125 367.796875 C67.66107964 367.78838531 67.66107964 367.78838531 65.75312805 367.77972412 C61.82068386 367.75756142 57.8891941 367.70740166 53.95703125 367.65625 C51.2702055 367.63386789 48.58335431 367.61763721 45.89648438 367.6015625 C39.35384803 367.55776268 32.81175786 367.49105477 26.26953125 367.40625 C26.32172992 371.74053923 26.41688718 376.07288507 26.51953125 380.40625 C26.53371094 381.62699219 26.54789062 382.84773438 26.5625 384.10546875 C26.77062602 391.8061314 27.24316356 397.98253399 32.64501953 403.91748047 C36.64189383 407.55254068 40.61010603 409.01667799 45.8828125 409.7890625 C52.2287858 410.73365934 55.84967493 411.64640473 60.26953125 416.40625 C63.16887458 421.10138038 62.8822934 426.06203329 62.26953125 431.40625 C60.26285952 435.8209278 57.67382776 438.50052571 53.30078125 440.71484375 C44.51165514 443.70652706 33.36565328 440.66830417 25.20703125 437.046875 C20.06375466 434.33547375 15.54860854 431.33837507 11.26953125 427.40625 C8.10476558 428.85916515 5.53254735 430.67214771 2.76953125 432.78125 C-6.48565271 439.36271415 -18.38934284 442.61458914 -29.73046875 441.40625 C-34.20564552 440.13637078 -37.59865451 438.17375847 -40.23046875 434.28125 C-42.38176847 429.81538228 -42.52926337 425.24694541 -41.73046875 420.40625 C-39.68110425 416.3807126 -37.53796307 413.78837465 -33.73046875 411.40625 C-30.5234375 410.59765625 -30.5234375 410.59765625 -26.91796875 409.96875 C-20.06202231 408.59471297 -15.5651395 407.1621799 -10.48046875 402.21875 C-5.8137861 394.71872432 -5.2342787 387.00735786 -5.04296875 378.34375 C-5.00880859 377.28736328 -4.97464844 376.23097656 -4.93945312 375.14257812 C-4.8577758 372.56390843 -4.78836932 369.98554438 -4.73046875 367.40625 C-5.44073013 367.40776888 -6.15099151 367.40928776 -6.88277596 367.41085267 C-49.0032379 367.50041616 -91.12368877 367.5690221 -133.24422682 367.61051132 C-138.30466375 367.61551399 -143.36510048 367.62069129 -148.42553711 367.62597656 C-149.43295487 367.6270258 -150.44037262 367.62807505 -151.47831819 367.62915608 C-167.7781456 367.64654882 -184.07791643 367.67808028 -200.37771031 367.71486118 C-217.10986316 367.75230209 -233.84198644 367.77449251 -250.57417947 367.78260398 C-260.89412728 367.78808521 -271.21391513 367.80538081 -281.53381369 367.83791587 C-288.61600689 367.85910264 -295.69811771 367.86544063 -302.78034028 367.86025551 C-306.8629726 367.8577002 -310.94532594 367.86154434 -315.02790833 367.8830719 C-318.77337503 367.90267657 -322.51837769 367.90343103 -326.2638667 367.88984558 C-328.24457263 367.88738105 -330.22527388 367.90450786 -332.20589894 367.92257524 C-347.72098183 367.81988424 -360.26599793 362.74945198 -371.54296875 352.09375 C-385.01781245 337.82485301 -386.32982245 322.13391739 -386.24804688 303.4921875 C-386.25347616 301.40301019 -386.26060333 299.31383672 -386.26928711 297.22467041 C-386.2874273 291.58415476 -386.28049145 285.94393378 -386.26777077 280.30341339 C-386.25759472 274.38114163 -386.26704918 268.45889392 -386.27331543 262.53662109 C-386.28057846 252.59402978 -386.27103943 242.65155758 -386.25195312 232.70898438 C-386.23018708 221.23849884 -386.23723939 209.76829778 -386.25925875 198.29781914 C-386.27745107 188.42310094 -386.27995234 178.54846803 -386.26950407 168.67373848 C-386.26329021 162.78755154 -386.26237532 156.90149802 -386.27565002 151.01531982 C-386.28726375 145.47966036 -386.27908223 139.94436521 -386.256073 134.40874481 C-386.25081532 132.38560336 -386.25224881 130.36243088 -386.26112366 128.33930206 C-386.3345704 109.88505029 -383.60101597 95.54542011 -370.41796875 81.59375 C-358.39208305 70.23709571 -344.57147282 66.77712526 -328.33537292 66.92523193 C-326.92996753 66.92348323 -325.52456343 66.91997286 -324.1191662 66.91487527 C-320.29463472 66.90600995 -316.47055868 66.92182097 -312.64608514 66.94198751 C-308.5078985 66.95937133 -304.36973452 66.95340814 -300.23152161 66.95037842 C-293.07420527 66.94828792 -285.91703555 66.96076536 -278.75975609 66.98332977 C-268.41174347 67.01593211 -258.06380127 67.02626519 -247.71574286 67.03128174 C-230.92398051 67.04002151 -214.13229619 67.06660124 -197.34057617 67.10449219 C-181.0355671 67.14124645 -164.73057928 67.16954148 -148.42553711 67.18652344 C-146.91625346 67.18809978 -146.91625346 67.18809978 -145.37647923 67.18970796 C-140.32838153 67.19492837 -135.28028367 67.19998314 -130.23218572 67.20495558 C-88.39822581 67.24637656 -46.56435176 67.31678899 -4.73046875 67.40625 C-4.81233034 63.75956493 -4.92507903 60.11443413 -5.04296875 56.46875 C-5.06552734 55.44716797 -5.08808594 54.42558594 -5.11132812 53.37304688 C-5.43625314 44.12745339 -6.70614488 35.97246579 -13.73046875 29.40625 C-18.41314869 26.54566125 -23.02138569 25.2690596 -28.41796875 24.46875 C-33.66841865 23.63779644 -36.11673803 22.29796001 -39.73046875 18.40625 C-42.45645609 13.90695601 -42.34552299 9.52381669 -41.73046875 4.40625 C-40.40013296 -0.04784895 -38.10642384 -2.70680848 -34.10546875 -5.03125 C-23.1359385 -9.72669468 -9.98603022 -5.29146674 0 0 Z M-349.73046875 105.40625 C-354.24074523 110.81597468 -354.87924351 115.68479249 -354.87763977 122.53373718 C-354.88131646 123.37186772 -354.88499315 124.20999825 -354.88878125 125.07352668 C-354.8998268 127.89236703 -354.90366342 130.71117053 -354.9074707 133.5300293 C-354.91373471 135.5470237 -354.92038146 137.56401694 -354.92738342 139.58100891 C-354.94479924 145.06879269 -354.95534687 150.55656775 -354.96358895 156.04437232 C-354.96873809 159.47253874 -354.97481387 162.90070245 -354.98110008 166.32886696 C-355.00015416 177.05350894 -355.0143846 187.77814403 -355.02271205 198.50279969 C-355.03248496 210.88485131 -355.0588051 223.26672418 -355.09921294 235.64871281 C-355.12936868 245.21739819 -355.14418043 254.78603231 -355.14749306 264.35476428 C-355.14984423 270.07050522 -355.15881344 275.78605524 -355.18395424 281.50174522 C-355.20723021 286.88044705 -355.21146997 292.2588322 -355.20119286 297.63757133 C-355.20069727 299.60960696 -355.20702445 301.58165815 -355.2207489 303.55364609 C-355.2384667 306.25075735 -355.23136231 308.94673202 -355.21821594 311.6438446 C-355.22918519 312.42003086 -355.24015443 313.19621712 -355.25145608 313.99592417 C-355.17629597 320.40452122 -353.19035903 325.55563889 -348.984375 330.4296875 C-342.05585498 335.96610303 -335.75414192 337.53269143 -326.86968422 337.52929783 C-325.13793416 337.5322844 -325.13793416 337.5322844 -323.37119925 337.53533131 C-321.48306826 337.53096205 -321.48306826 337.53096205 -319.55679321 337.52650452 C-318.19868016 337.52694079 -316.84056718 337.52781672 -315.48245466 337.52909368 C-311.75628375 337.53132767 -308.03014163 337.52733234 -304.30397439 337.52231562 C-300.2835924 337.51799559 -296.26321203 337.51945865 -292.24282837 337.5202179 C-285.27915691 337.52074214 -278.31549482 337.51760567 -271.35182571 337.51198006 C-261.28353969 337.50385167 -251.21525819 337.50124846 -241.14696924 337.49999207 C-224.81168135 337.49780366 -208.47639846 337.49114927 -192.14111328 337.48168945 C-176.27327499 337.47250989 -160.40543806 337.46544318 -144.53759766 337.46118164 C-143.54946465 337.46091364 -142.56133164 337.46064565 -141.54325521 337.46036953 C-133.81536073 337.45829009 -126.08746622 337.45633317 -118.3595717 337.45441496 C-80.48319946 337.44498196 -42.60683973 337.42486348 -4.73046875 337.40625 C-4.73046875 258.20625 -4.73046875 179.00625 -4.73046875 97.40625 C-62.80761429 97.34798438 -62.80761429 97.34798438 -120.88476562 97.30859375 C-128.71411141 97.30467802 -136.54345712 97.30063706 -144.37280273 97.29638672 C-145.84471814 97.29559547 -145.84471814 97.29559547 -147.34636921 97.29478824 C-163.18700965 97.28609033 -179.02763557 97.27032307 -194.86826741 97.25194441 C-211.12579837 97.23323941 -227.38332172 97.222132 -243.640863 97.21807301 C-253.67210161 97.2153292 -263.70329918 97.20666393 -273.73452515 97.19041707 C-280.61390395 97.17984279 -287.49326154 97.17665039 -294.37264787 97.17924725 C-298.34128818 97.18052784 -302.30985679 97.17856869 -306.27848434 97.16783905 C-309.91507434 97.15807908 -313.55154468 97.15763286 -317.18814028 97.16445221 C-319.12008593 97.16569222 -321.05203026 97.1570911 -322.98395532 97.14808738 C-333.42303963 97.1839085 -341.9200098 97.93153476 -349.73046875 105.40625 Z M26.26953125 97.40625 C26.26953125 176.60625 26.26953125 255.80625 26.26953125 337.40625 C59.35117621 341.13427308 59.35117621 341.13427308 90.26953125 329.40625 C94.77980773 323.99652532 95.41830601 319.12770751 95.41670227 312.27876282 C95.42037896 311.44063228 95.42405565 310.60250175 95.42784375 309.73897332 C95.4388893 306.92013297 95.44272592 304.10132947 95.4465332 301.2824707 C95.45279721 299.2654763 95.45944396 297.24848306 95.46644592 295.23149109 C95.48386174 289.74370731 95.49440937 284.25593225 95.50265145 278.76812768 C95.50780059 275.33996126 95.51387637 271.91179755 95.52016258 268.48363304 C95.53921666 257.75899106 95.5534471 247.03435597 95.56177455 236.30970031 C95.57154746 223.92764869 95.5978676 211.54577582 95.63827544 199.16378719 C95.66843118 189.59510181 95.68324293 180.02646769 95.68655556 170.45773572 C95.68890673 164.74199478 95.69787594 159.02644476 95.72301674 153.31075478 C95.74629271 147.93205295 95.75053247 142.5536678 95.74025536 137.17492867 C95.73975977 135.20289304 95.74608695 133.23084185 95.7598114 131.25885391 C95.7775292 128.56174265 95.77042481 125.86576798 95.75727844 123.1686554 C95.76824769 122.39246914 95.77921693 121.61628288 95.79051858 120.81657583 C95.71535847 114.40797878 93.72942153 109.25686111 89.5234375 104.3828125 C72.08455633 90.44781738 46.9516354 97.40625 26.26953125 97.40625 Z " transform="translate(385.73046875,38.59375)"/>
<path d="M0 0 C4.52488127 2.14336481 6.89879323 4.46581697 9 9 C9.85006823 12.51392804 10.14502211 15.82346639 10.20532227 19.43286133 C10.22526749 20.49358353 10.24521271 21.55430573 10.26576233 22.64717102 C10.28247482 23.7806749 10.29918732 24.91417877 10.31640625 26.08203125 C10.33718735 27.25134689 10.35796844 28.42066254 10.37937927 29.62541199 C10.44467414 33.35438253 10.50366659 37.08342247 10.5625 40.8125 C10.60570429 43.34310609 10.64931919 45.8737052 10.69335938 48.40429688 C10.800335 54.60279158 10.90213848 60.80135506 11 67 C12.09119141 66.44570312 13.18238281 65.89140625 14.30664062 65.3203125 C15.75642905 64.58838048 17.2063034 63.85661863 18.65625 63.125 C19.37329102 62.76019531 20.09033203 62.39539063 20.82910156 62.01953125 C36.90051216 53.92866093 57.38389646 53.10877045 74.5546875 58.62109375 C94.6381122 66.6590177 109.89074425 80.22409131 118.52734375 100.33984375 C125.90454657 118.67522582 125.66490672 138.72956196 118 157 C108.82808829 177.59921155 92.74409318 189.98199961 72.21484375 198.1015625 C55.24403389 203.4502419 34.05881062 201.32005213 18.3972168 193.26391602 C11.63200848 189.63200848 11.63200848 189.63200848 10 188 C9.78085938 188.53109375 9.56171875 189.0621875 9.3359375 189.609375 C7.08607375 194.62126661 5.24997806 197.7500094 0 200 C-5.18407095 200.89808553 -9.86322837 201.24562191 -14.51953125 198.53125 C-17.67288479 195.84947906 -19.6769443 193.96916711 -21 190 C-21.09900868 187.61472358 -21.13505432 185.22671028 -21.14044189 182.83938599 C-21.14341302 182.10531112 -21.14638414 181.37123625 -21.1494453 180.61491668 C-21.158136 178.148377 -21.15964085 175.68188583 -21.16113281 173.21533203 C-21.16576068 171.44962459 -21.1707853 169.68391816 -21.17617798 167.91821289 C-21.18930596 163.11655544 -21.19574757 158.31491198 -21.20018864 153.51323938 C-21.20311838 150.51459089 -21.20722297 147.51594622 -21.21169281 144.51729965 C-21.22536804 135.13871437 -21.23503489 125.76013784 -21.2388947 116.38154328 C-21.24337736 105.54859129 -21.26093483 94.71576537 -21.2898953 83.88285172 C-21.31149502 75.51335297 -21.32159805 67.14388973 -21.32293582 58.7743634 C-21.32398496 53.77359987 -21.32991612 48.77295484 -21.34775543 43.77222061 C-21.36420683 39.06905662 -21.36640591 34.36610056 -21.35761642 29.66291809 C-21.35684451 27.93634866 -21.36120908 26.20976819 -21.37107468 24.48322678 C-21.38375055 22.12676268 -21.37794159 19.77103995 -21.36749268 17.4145813 C-21.36895924 16.09570482 -21.3704258 14.77682835 -21.3719368 13.41798592 C-20.82856466 8.42456143 -18.78933514 5.91077131 -15.5625 2.1875 C-11.06026546 -1.37817948 -5.4130655 -0.80193563 0 0 Z M17.6875 102.875 C10.4910482 113.14993396 8.89206542 123.71309612 10 136 C12.34769338 146.92012808 18.78519203 156.67857883 28 163 C39.28665928 168.96801436 50.96759578 171.22320766 63.5390625 168.12890625 C74.61705687 163.76354671 84.06116178 156.17698026 89.28515625 145.33203125 C93.62403746 134.30598546 94.05575979 123.61749833 90.06640625 112.3671875 C85.53590656 102.36559995 78.14377201 94.31476658 68 90 C67.42233887 89.74395996 66.84467773 89.48791992 66.24951172 89.22412109 C61.18382096 87.12164081 56.71577395 86.45326376 51.25 86.5 C50.4650415 86.50572021 49.68008301 86.51144043 48.87133789 86.51733398 C36.27382837 86.90064106 25.50434772 93.06982693 17.6875 102.875 Z " transform="translate(233,156)"/>
<path d="M0 0 C5.05798284 3.33367051 7.26749174 7.01740147 8.75 12.8125 C9.03943152 16.61375299 9.02319647 20.40384102 9.00878906 24.21459961 C9.01404602 25.92542976 9.01404602 25.92542976 9.01940918 27.67082214 C9.02820101 31.4355582 9.0223858 35.20010583 9.015625 38.96484375 C9.01697247 41.58508846 9.01891369 44.20533293 9.02142334 46.82557678 C9.02505731 52.31562331 9.0202794 57.80561596 9.01074219 63.2956543 C8.99986413 69.6304354 9.00338074 75.96508769 9.014395 82.29986566 C9.0245878 88.40809893 9.02347915 94.51627538 9.01763153 100.62451363 C9.01629856 103.21723003 9.0179304 105.80994972 9.02259064 108.40266228 C9.02767774 112.02886495 9.01991434 115.65482148 9.00878906 119.28100586 C9.01283752 120.3497998 9.01688599 121.41859375 9.02105713 122.51977539 C8.94867172 135.27557109 8.94867172 135.27557109 4.3125 140.625 C-0.65603253 144.86643021 -3.74686218 145.43695413 -10.15625 145.3125 C-14.46028641 144.61689816 -16.79125827 143.03310759 -19.82421875 139.96875 C-22.16344024 136.43107805 -22.40101361 132.97481262 -22.25 128.8125 C-23.1471875 129.28300781 -24.044375 129.75351562 -24.96875 130.23828125 C-42.23265721 138.97431884 -60.47827178 141.48236329 -79.25 135.8125 C-98.03906861 128.65884411 -111.65351921 115.97331016 -120.25 97.8125 C-126.8766086 82.71648996 -126.83416533 62.70224692 -120.87109375 47.3671875 C-118.1718896 41.44845069 -115.01570348 36.12657656 -111.25 30.8125 C-110.77949219 30.13832031 -110.30898437 29.46414062 -109.82421875 28.76953125 C-100.50178757 16.75211997 -84.25512149 7.75226464 -69.25 5.8125 C-52.31412791 4.56661946 -38.24283212 6.38335014 -23.25 14.8125 C-23.023125 13.61625 -22.79625 12.42 -22.5625 11.1875 C-21.40112338 6.57470834 -19.65137491 4.13477317 -16.25 0.8125 C-11.11135573 -2.24291011 -5.44546222 -1.98968812 0 0 Z M-86 49.5625 C-92.95569537 58.03030305 -94.44297922 67.15482572 -93.52490234 77.86572266 C-92.40283765 85.81185397 -88.3657334 93.59338397 -82.25 98.8125 C-74.16097008 104.72856694 -64.47033253 109.21148088 -54.25 107.8125 C-43.79670753 105.7425411 -34.95761354 100.99329023 -28.71875 92.23828125 C-23.08598393 82.93522877 -21.23585788 74.23420892 -23.46875 63.61328125 C-26.12476897 54.09145324 -31.31210021 46.40202739 -39.84765625 41.2421875 C-56.67403772 32.56879499 -73.22610015 36.10913739 -86 49.5625 Z " transform="translate(179.25,211.1875)"/>
</svg>
